<svg id="visual" viewBox="0 0 900 450" width="900" height="450" xmlns="http://www.w3.org/2000/svg" xmlns:xlink="http://www.w3.org/1999/xlink" version="1.1"><rect x="0" y="0" width="900" height="450" fill="#001220"></rect><defs><linearGradient id="grad1_0" x1="50%" y1="100%" x2="100%" y2="0%"><stop offset="10%" stop-color="#4e9bdd" stop-opacity="1"></stop><stop offset="90%" stop-color="#4e9bdd" stop-opacity="1"></stop></linearGradient></defs><defs><linearGradient id="grad1_1" x1="50%" y1="100%" x2="100%" y2="0%"><stop offset="10%" stop-color="#4e9bdd" stop-opacity="1"></stop><stop offset="90%" stop-color="#001220" stop-opacity="1"></stop></linearGradient></defs><defs><linearGradient id="grad2_0" x1="0%" y1="100%" x2="50%" y2="0%"><stop offset="10%" stop-color="#4e9bdd" stop-opacity="1"></stop><stop offset="90%" stop-color="#4e9bdd" stop-opacity="1"></stop></linearGradient></defs><defs><linearGradient id="grad2_1" x1="0%" y1="100%" x2="50%" y2="0%"><stop offset="10%" stop-color="#001220" stop-opacity="1"></stop><stop offset="90%" stop-color="#4e9bdd" stop-opacity="1"></stop></linearGradient></defs><g transform="translate(900, 450)"><path d="M-270 0C-253 -41.2 -236 -82.4 -215.6 -124.5C-195.3 -166.6 -171.5 -209.4 -135 -233.8C-98.5 -258.2 -49.2 -264.1 0 -270L0 0Z" fill="#235277"></path><path d="M-135 0C-126.5 -20.6 -118 -41.2 -107.8 -62.3C-97.6 -83.3 -85.8 -104.7 -67.5 -116.9C-49.2 -129.1 -24.6 -132.1 0 -135L0 0Z" fill="#4e9bdd"></path></g><g transform="translate(0, 0)"><path d="M270 0C250.7 39.9 231.4 79.8 211.3 122C191.2 164.2 170.3 208.8 135 233.8C99.7 258.9 49.8 264.4 0 270L0 0Z" fill="#235277"></path><path d="M135 0C125.3 19.9 115.7 39.9 105.7 61C95.6 82.1 85.2 104.4 67.5 116.9C49.8 129.4 24.9 132.2 0 135L0 0Z" fill="#4e9bdd"></path></g></svg>